<?xml version="1.0" standalone="no"?>
<!DOCTYPE svg PUBLIC "-//W3C//DTD SVG 20010904//EN"
 "http://www.w3.org/TR/2001/REC-SVG-20010904/DTD/svg10.dtd">
<svg version="1.0" xmlns="http://www.w3.org/2000/svg"
 width="752.000000pt" height="752.000000pt" viewBox="0 0 752.000000 752.000000"
 preserveAspectRatio="xMidYMid meet">

<g transform="translate(0.000000,752.000000) scale(0.100000,-0.100000)"
fill="#000000" stroke="none">
<path d="M2488 5130 c-369 -66 -882 -469 -1039 -817 -59 -129 -59 -118 -59
-1065 l0 -868 123 1 122 0 85 52 85 52 3 153 3 152 1389 0 1390 0 0 -205 0
-205 113 0 112 0 110 59 110 59 3 223 3 224 311 205 c172 113 318 206 325 208
10 3 13 -27 13 -142 l0 -146 112 0 111 0 109 61 109 61 -7 447 c-3 245 -9 550
-13 678 -6 214 -8 234 -27 260 -53 70 -148 88 -285 54 -98 -24 -257 -99 -373
-174 -79 -52 -247 -186 -275 -220 -12 -16 -79 -17 -831 -17 l-817 0 -19 21
c-30 33 -135 105 -201 138 -118 59 -201 76 -370 76 l-152 0 -3 290 c-3 282 -4
291 -25 321 -42 58 -138 84 -245 64z m501 -770 c45 -6 117 -22 159 -35 78 -25
202 -92 203 -110 0 -5 -21 -17 -48 -26 -217 -73 -499 -270 -638 -444 -90 -114
-115 -211 -75 -290 11 -22 20 -41 20 -42 0 -2 -181 -3 -402 -3 l-402 0 -38 26
c-54 38 -82 101 -75 167 36 302 601 701 1070 756 104 12 133 12 226 1z m2051
-246 c0 -3 -22 -30 -49 -60 -64 -70 -133 -181 -167 -269 -24 -62 -28 -88 -33
-220 l-6 -150 -970 0 c-912 0 -973 1 -1022 18 -63 22 -103 65 -103 111 0 78
99 208 244 320 148 114 263 178 403 226 l88 30 808 0 c444 0 807 -3 807 -6z"/>
</g>
</svg>
