<?xml version="1.0" encoding="utf-8"?>
<!-- Generator: Adobe Illustrator 16.0.0, SVG Export Plug-In . SVG Version: 6.00 Build 0)  -->
<!DOCTYPE svg PUBLIC "-//W3C//DTD SVG 1.1//EN" "http://www.w3.org/Graphics/SVG/1.1/DTD/svg11.dtd">
<svg version="1.1" id="Calque_1" xmlns="http://www.w3.org/2000/svg" xmlns:xlink="http://www.w3.org/1999/xlink" x="0px" y="0px"
	 width="181px" height="133.628px" viewBox="0 0 181 133.628" enable-background="new 0 0 181 133.628" xml:space="preserve">
<g>
	<path opacity="0.1" fill="#FFFFFF" enable-background="new    " d="M79.674,46.108c0.805,2.221,3.496,11.777,3.888,13.801
		c0.393,2.027,0.984,4.824,0.984,4.824l0.928-0.281c0,0-1.519-14.455-1.811-16.577c-0.289-2.122-1.758-10.417-1.941-13.303
		c-0.181-2.891-1.696-17.732-1.792-18.887c-0.092-1.155-1.64-12.434-1.64-12.434s-1.072-0.332-2.495-0.332
		c-0.903,0-1.946,0.135-2.948,0.574c-2.575,1.134-4.853,3.523-5.375,4.385c-0.52,0.864,6.722,18.732,7.516,21.727
		C75.785,32.599,78.873,43.887,79.674,46.108z"/>
	<path opacity="0.1" fill="#FFFFFF" enable-background="new    " d="M84.576,37.1c0.291,2.023,0.896,15.317,1.187,17.244
		c0.293,1.93,0.64,9.25,0.639,9.829c-0.007,0.576,1.016,0.681,1.016,0.681s1.358-15.008,1.372-16.161
		c0.007-1.158,1.267-16.457,1.275-17.325c0.004-0.863,1.682-16.833,1.685-17.314c0.002-0.479,1.425-10.677,1.531-11.06
		c0.1-0.366-0.64-1.358-3.586-1.383h-0.231c-0.06,0-0.117,0.001-0.176,0.003C86,1.682,83.636,2.529,82.605,2.716
		C81.576,2.897,80.75,3.47,80.75,3.47s2.138,14.749,2.32,17.444C83.253,23.611,84.285,35.075,84.576,37.1z"/>
	<path opacity="0.1" fill="#FFFFFF" enable-background="new    " d="M90.646,47.358c-0.54,3.366-1.408,8.747-1.525,10.674
		c-0.119,1.922-0.98,6.827-0.98,6.827l0.409,0.293c0,0,4.854-15.654,5.376-17c0.524-1.342,3.708-13.542,4.13-14.982
		c0.424-1.439,3.375-10.852,3.693-11.812c0.316-0.958,4.711-11.32,4.924-12.09l0.211-0.767c0,0-0.494-2.221-3.156-2.917
		c-2.66-0.697-4.914-1.292-6.248-1.303h-0.01c-1.33-0.001-1.984,4.892-2.199,6.141c-0.219,1.251-2.075,14.716-2.297,16.832
		C92.752,29.371,91.188,43.993,90.646,47.358z"/>
	<path opacity="0.1" fill="#FFFFFF" enable-background="new    " d="M97.055,42.309c-0.637,2.496-4.103,12-4.631,13.632
		c-0.526,1.634-2.941,7.967-2.941,7.967l-0.422,1.25l0.307,0.098c0,0,10.201-17.052,11.25-19.355
		c1.045-2.301,9.449-16.104,10.389-17.926c0.939-1.822,5.35-10.537,5.559-10.824c0.209-0.288,0.939-1.244-1.613-3.092
		c-2.553-1.854-4.191-2.447-5.012-2.933c-0.012-0.008-0.023-0.013-0.041-0.013c-0.943-0.001-6.252,14.82-7.08,16.901
		C101.98,30.122,97.689,39.811,97.055,42.309z"/>
	<path opacity="0.1" fill="#FFFFFF" enable-background="new    " d="M95.391,57.123c-1.667,2.681-5.406,7.753-5.51,8.138
		c-0.103,0.362,0.17,0.471,0.195,0.482h0.006c0.098-0.109,9.449-10.438,13.261-14.907c3.842-4.494,17.416-19.977,18.037-20.934
		c0.379-0.58,0.945-1.086,0.953-1.953v-0.029c-0.004-0.563-0.244-1.275-0.912-2.253c-1.729-2.518-2.338-3.005-2.633-3.971
		c-0.006-0.026-0.027-0.037-0.049-0.037c-0.838-0.001-11.111,16.288-12.535,18.898C104.744,43.241,97.055,54.44,95.391,57.123z"/>
	<path opacity="0.1" fill="#FFFFFF" enable-background="new    " d="M105.199,50.176c-3.613,2.859-13.783,15.289-13.783,15.289
		s13.648-11.34,16.127-12.959c2.477-1.614,7.307-2.729,8.965-4.257c1.654-1.525,4.877-6.504,5.512-8.715
		c0.637-2.208-0.361-5.492-0.359-5.78c0-0.003-0.002-0.005-0.006-0.005C121.395,33.749,108.789,47.34,105.199,50.176z"/>
	<path opacity="0.1" fill="#FFFFFF" enable-background="new    " d="M137.52,91.392c-0.711-1.388-1.764-2.563-2.918-3.567
		c-1.162-1.011-2.5-1.839-3.961-2.39c-1.449-0.557-2.996-0.833-4.533-0.892c-1.809-0.071-3.086-0.124-4.494-0.602
		c0.91-1.046,1.633-2.34,1.846-3.827c0.184-1.648,0.055-3.364-0.715-4.951c-0.75-1.58-2.197-2.803-3.795-3.362
		c-0.904-0.326-1.85-0.49-2.801-0.49c-0.721,0-1.443,0.096-2.148,0.284c-0.818,0.229-1.627,0.591-2.322,1.186
		c-0.688,0.578-1.248,1.48-1.328,2.472c-0.09,0.984,0.244,1.883,0.664,2.611c0.428,0.743,0.963,1.36,1.533,1.917
		c1.146,1.108,2.42,1.976,3.752,2.764c1.043,0.611,1.395,0.89,2.119,1.333c-2.17,1.316-5.58,2.08-9.02,2.177
		c-0.67,0.068-2.322,0-3.539-0.288c-0.695-0.144-2.982-0.874-3.654-1.105c-0.127-0.041-0.279-0.099-0.438-0.155
		c-0.186-2.426,1-4.82,1-4.82c-0.02-0.003-0.035-0.003-0.059-0.003c-0.709,0-2.918,1.561-4.84,3.03
		c-0.809-0.446-1.617-0.946-2.354-1.498c-0.215-0.164-0.42-0.346-0.633-0.517c0.184-0.286,0.383-0.593,0.605-0.951l0.955,0.948
		c0.979-2.943,2.268-6.113,2.684-8.998l-0.697,0.838c-0.178-1.205,0.512-3.603,1.273-4.916l0.244,0.28
		c-0.393,1.099-0.299,0.95-0.053,0.801c0.195-0.116,0.49-0.234,0.709,0.284v0.406l0.252-0.127l-0.008-0.413
		c0.16,0.129,0.406,0.205,0.33,0.559l0.234-0.438c1.299-0.574,2.033-0.262,2.932,0.296c-0.002-0.323-1.068-0.46-0.258-1.439
		l0.236,0.274l-0.029-1.465l0.643-0.382c-0.035-0.529-0.125-0.889,0.17-1.292l-0.596-0.394c1.027-1.937,1.119-4.782,2.172-6.771
		c-0.516-0.65,0.648-1.628,0.35-2.872l-0.836,0.326c-1.238,1.009-1.529,4.127-2.553,5.985l-0.35-0.212
		c0.018-0.45-0.188-0.843,0.158-1.297l-0.324-0.178c-0.016-1.152,0.473-2.932,0.473-2.932s-10.323,7.516-10.431,8.192
		c-0.056,0.333,1.213,0.392,2.63,0.37c-1.313,1.748-2.156,4.534-3.109,6.255c-0.298,2.375-1.7,4.545-3.321,6.497
		c-1.732-0.729-4.468-1.645-8.085-2.13c-0.049-1.238,2.324-0.614,2.324-0.614l0.614-0.572l1.953,0.084
		c-0.242-1.965,2.617-1.79,2.617-1.79c-1.727-0.179-2.097-1.611-2.097-1.611c-0.133-0.706,1.037-2.719,1.037-2.719
		c-0.559,0.305-0.471-0.509-0.471-0.509c0.499-0.248,0.715-2.839,0.715-2.839c-1.02,1.153-3.404,1.056-3.404,1.056
		c-0.385-0.167-0.752-1.005-1.007-1.728l0.059-0.026c0,0-4.388-15.249-5.392-17.955c-1.005-2.702-3.504-10.619-3.807-11.296
		c-0.299-0.677-5.625-14.585-6.226-16.132c-0.605-1.544-2.894-9.746-2.894-9.746s-0.429-0.215-1.143-0.215
		c-0.883,0-2.207,0.328-3.696,1.809c-2.69,2.675-2.822,5.944-3.339,6.422c-0.517,0.48,9.097,16.638,10.306,19.248
		c1.213,2.608,9.705,17.894,10.313,19.055c0.523,1.003,4.075,7.072,5.022,8.69c-0.041,0.037-0.071,0.061-0.071,0.061
		c-0.194,0.331-0.621,0.268-1.08,0.061l0.364-0.108c0,0-8.909-14.521-10.126-16.456c-1.216-1.936-7.992-13.932-8.493-15.188
		c-0.505-1.256-3.336-6.286-3.639-6.769c-0.303-0.485-3.942-7.159-3.942-7.159s-2.783,1.132-3.725,3.628
		c-0.945,2.493-0.255,5.966,0.25,6.837c0.505,0.869,7.822,9.695,8.736,11.05c0.912,1.356,8.331,10.275,8.937,11.051
		c0.544,0.691,9.167,10.63,11.028,12.775c-0.584-0.375-1.085-0.817-1.085-0.817c-0.467-1.19-1.903-2.297-2.781-2.888
		c-3.594-4.095-8.643-9.844-9.096-10.34c-0.715-0.777-5.392-6.011-5.392-6.011S52.5,30.764,52.194,30.569
		c-0.009-0.008-0.021-0.01-0.037-0.01c-0.391-0.001-2.02,2.537-1.556,6.35c0.48,3.953,3.02,7.053,4.238,8.51
		c1.221,1.457,13.874,10.419,15.096,11.2c0.721,0.458,4.006,3.03,6.639,5.135c-0.031,0.046-0.054,0.08-0.054,0.08
		c-0.232,0.265-0.397,0.624-0.516,1.011c-2.583-2.184-6.523-5.495-7.199-5.947c-0.047-0.032-0.093-0.049-0.138-0.049
		c-0.88,0-0.83,6.239-0.639,6.974c0.2,0.773,4.816,1.192,6.253,1.019c0.417-0.053,0.927-0.081,1.442-0.092
		c-0.013,0.376-0.002,0.629-0.002,0.629l-0.479,2.418c-0.297,1.938-1.658,0.798-1.658,0.798c-1.561-1.585-3.645-0.907-3.645-0.907
		c1.246,1.241,0.41,1.8,0.41,1.8c-0.646-0.021-3.255,2.688-3.255,2.688c-1.695,1.771-5.99,1.974-5.99,1.974
		c0.461,0.613,2.771,1.199,2.771,1.199c-0.079,0.48,4.462,3.491,4.462,3.491c1.653,0.658,0.003,1.245,0.003,1.245l1.07,0.372
		c2.128-0.405,3.429,0.896,3.429,0.896c-0.843,0.671-0.077,4.44-0.077,4.44c0.146,0.496-0.787,3.328-0.787,3.328
		c0.327,0.021,4.907-2.022,4.907-2.022c0.15,0.284,3.774-0.87,3.774-0.87c0.946-0.188,1.675,0.173,2.217,0.69
		c-0.435,0.606-1,0.963-1.848,0.75c-0.405,0.327-0.816,0.649-1.228,0.967c-1.062-0.099-2.166-0.175-3.358-0.182l-0.1,0.587
		c0,0,1.066,0.008,2.671,0.186c-0.262,0.195-0.52,0.393-0.784,0.582l-0.217-0.34c-2.523,2.19-4.843,5.181-7.356,6.997
		c-1.092,0.741-1.012,1.832-2.043,1.116c-2.585,0.508-4.879,2.822-7.347,3.141c0.036,0.348-0.289,0.74,0.191,0.899
		c1.221-0.528,2.866-0.02,3.181,0.877l-0.543,0.036c0.369,0.189,0.743,0.353,1.131,0.525l0.514-0.468
		c0.22,0.179,0.348,0.342,0.405,0.48c1.141,0,2.353,0.458,3.678,0.488c0.681-0.572,1.504-1.029,2.878-1.25l-0.172-0.303
		c0.265-0.181,1.509-1.374,3.011-2.838c0.034,1.233-0.446,2.1-0.446,2.1c-0.768,1.182-5.157,2.442-5.157,2.442
		c1.194,0.333-0.031,1.36-0.031,1.36c-1.048-0.32-4.881,3.064-4.881,3.064c3.02-0.24,6.27,3.134,6.27,3.134
		c0.538,1.291-1.643,5.322-1.903,5.79c0.5-0.846,2.09-0.671,2.09-0.671c1.971-0.553,2.456,5.322,2.456,5.322
		c-1.415,3.431,0.42,9.488,0.42,9.488c-0.408-2.265,2.312-2.662,2.312-2.662c2.708-0.242,5.944-3.943,5.944-3.943l3.967-2.782
		c3.057-2.347,3.437,1.119,3.437,1.119c0.06,4.375,3.939,6.249,3.939,6.249c-0.078-3.46,1.873-3.118,1.873-3.118
		c0.885,0.911,8.27,0.611,8.27,0.611c4.818-0.207,11.186,5.344,11.186,5.344c0.176-1.5-2.305-5.461-2.305-5.461
		c0.77-0.584-1.582-11.018-1.582-11.018c-1.445-3.196,1.688-1.774,1.688-1.774l-1.016-1.991c-3.566-2.313-3.646-5.93-3.646-5.93
		c2.104,0.191,6.146-6.199,6.146-6.199c0.463-0.897,5.648-3.649,5.648-3.649c-0.445-0.474-9.717-3.807-9.717-3.807
		c0.168-0.607-6.537-3.895-6.537-3.895c-0.678-0.431-1.152-0.951-1.494-1.518c0.094,0.021,0.184,0.048,0.273,0.07
		c1.232,0.281,2.461,0.578,3.635,0.833c0.93,0.116,2.197,0.246,3.018,0.175c2.434,0.057,4.756-0.351,6.861-0.919
		c1.291-0.595,3.117-1.091,4.336-2.002c0.418,0.13,0.996,0.284,1.85,0.485c1.395,0.117,0.713,0.132,3.627,0.193
		c1.449,0.033,2.887,0.249,4.24,0.73c1.354,0.477,2.617,1.216,3.727,2.14c1.127,0.925,2.133,1.994,2.816,3.266
		c0.686,1.252,1.043,2.688,0.957,4.123c-0.15,2.896-2.002,5.552-4.449,7.121c-2.463,1.606-5.607,2.166-8.473,1.388l-0.059,0.208
		c2.904,0.858,6.164,0.371,8.75-1.233c2.588-1.571,4.625-4.296,4.875-7.44C138.59,94.359,138.232,92.77,137.52,91.392z
		 M81.422,76.587c2.195,0.403,4.783,1.096,7.115,2.311c-0.869,0.979-1.756,1.894-2.543,2.756c-1.028-1.159-1.005-1.803-1.005-1.803
		c-1.224-0.651-0.492-1.32-0.492-1.32C80.888,77.746,81.223,76.855,81.422,76.587z M84.762,99.953l-1.649-0.032l-2.657-2.766
		c-1.076,1.439-2.468,1.324-3.656,0.785c2.307-2.253,4.753-4.647,5.16-4.928c2.09,1.677,4.651,5.777,6.687,9.449
		C87.041,103.667,84.762,99.953,84.762,99.953z M94.687,85.245c-3.243,4.001-4.525,0.668-4.525,0.668
		c0.208,4.372-1.018,5.547-1.018,5.547C89.998,94.042,88.05,94,88.05,94c4.321,6.428,2.104,6.913,1.602,6.945
		c-1.969-3.904-4.167-8.102-5.486-9.365c2.61-1.928,2.393-2.911,5.032-5.335c3.069-2.836,3.415-2.418,4.675-4.079
		c0.183,0.152,0.355,0.319,0.541,0.47c0.583,0.474,1.195,0.923,1.83,1.348C95.326,84.716,94.687,85.245,94.687,85.245z
		 M121.447,79.83c-0.186,1.165-0.91,2.276-1.869,3.18c-0.432-0.247-0.896-0.537-1.404-0.877c-0.713-0.406-1.361-0.838-2.57-1.569
		c-0.541-0.385-0.977-0.9-1.961-1.893c-0.975-0.96-1.785-2.198-1.664-3.26c0.086-1.033,1.203-1.852,2.461-2.145
		c1.26-0.316,2.662-0.223,3.871,0.245c1.211,0.468,2.182,1.352,2.695,2.484C121.543,77.128,121.633,78.526,121.447,79.83z"/>
</g>
<g>
	<path fill="#FFFFFF" d="M11.91,68.407c3.287,2.742,7.442,3.784,12.391,3.784c2.312,0,5.056-0.242,6.502-0.798
		c0.614-0.244,0.758-0.417,0.939-1.007c0.361-1.181,0.794-4.202,0.794-4.62c0-0.277-0.072-0.521-0.325-0.521
		c-0.289,0-0.361,0.14-0.469,0.695c-0.145,0.625-0.614,1.632-1.229,2.292c-1.444,1.599-3.396,1.945-6.61,1.945
		c-4.841,0-11.379-4.098-11.379-12.364c0-3.369,0.687-6.668,3.323-8.996c1.589-1.389,3.648-2.153,6.791-2.153
		c3.323,0,6.141,0.938,7.333,2.153c0.903,0.903,1.373,2.119,1.409,3.195c0,0.486,0.072,0.765,0.361,0.765
		c0.325,0,0.397-0.278,0.434-0.799c0.072-0.694,0.036-2.604,0.108-3.751c0.073-1.216,0.181-1.632,0.181-1.91
		c0-0.208-0.145-0.383-0.542-0.417c-1.084-0.104-2.24-0.417-3.613-0.591c-1.661-0.208-2.998-0.347-5.237-0.347
		c-5.383,0-8.814,1.389-11.415,3.682C8.19,51.7,7.431,55.798,7.431,58.16C7.431,61.529,8.371,65.419,11.91,68.407z"/>
	<path fill="#FFFFFF" d="M47.194,72.099c7.726,0,12.593-5.294,12.593-11.993c0-6.699-4.715-10.94-12.29-10.94
		c-9.125,0-12.563,6.465-12.563,11.467C34.935,65.81,38.463,72.099,47.194,72.099z M46.616,50.569c4.988,0,8.913,4.066,8.913,10.618
		c0,8.454-4.928,9.449-7.057,9.449c-5.841,0-9.338-4.827-9.338-10.911C39.133,52.441,43.118,50.569,46.616,50.569z"/>
	<path fill="#FFFFFF" d="M61.739,71.689c1.582,0,3.011-0.088,3.285-0.088c0.578,0,1.794,0.088,3.772,0.088
		c0.425,0,0.699-0.059,0.699-0.292c0-0.176-0.183-0.233-0.518-0.233c-0.486,0-1.064-0.03-1.581-0.205
		c-0.608-0.206-1.004-0.966-1.064-3.248l-0.334-12.198h0.091c0.547,0.556,3.924,4.125,7.239,7.284
		c3.164,3.013,7.058,6.845,8.975,8.601c0.334,0.321,0.699,0.644,1.033,0.644c0.274,0,0.396-0.263,0.396-0.906l0.334-18.458
		c0.031-1.639,0.274-2.252,1.126-2.486c0.365-0.088,0.608-0.088,0.913-0.088c0.365,0,0.548-0.088,0.548-0.264
		c0-0.233-0.305-0.263-0.7-0.263c-1.491,0-2.646,0.088-2.981,0.088c-0.639,0-2.099-0.088-3.68-0.088
		c-0.457,0-0.791,0.03-0.791,0.263c0,0.176,0.122,0.264,0.486,0.264c0.426,0,1.156,0,1.612,0.176
		c0.73,0.292,1.004,0.848,1.034,2.632l0.304,13.134h-0.152c-0.518-0.468-4.624-4.681-6.692-6.669
		c-4.441-4.242-9.065-8.922-9.43-9.302c-0.517-0.527-0.791-0.907-1.125-0.907c-0.305,0-0.396,0.409-0.396,0.994l-0.274,17.23
		c-0.03,2.544-0.152,3.395-0.943,3.627c-0.426,0.117-0.974,0.146-1.369,0.146c-0.304,0-0.487,0.058-0.487,0.233
		C61.069,71.661,61.343,71.689,61.739,71.689z"/>
	<path fill="#FFFFFF" d="M100.984,72.099c1.611,0,3.56-0.321,4.775-0.76l4.775,2.691c5.02,2.838,8.275,3.977,12.867,3.977
		c4.381,0,7.818-1.346,9.643-2.19c0.213-0.088,0.365-0.176,0.365-0.354c0-0.145-0.121-0.262-0.273-0.262
		c-0.121,0-0.273,0.088-0.455,0.146c-2.102,0.789-4.35,1.023-5.932,1.023c-2.07,0-6.115-0.322-12.533-3.481l-6.115-3.014
		c1.918-1.229,5.293-4.477,5.293-9.625c0-6.845-5.049-11.086-12.317-11.086c-8.913,0-12.473,6.552-12.473,11.32
		C88.604,65.751,92.072,72.099,100.984,72.099z M100.377,50.569c4.195,0,8.76,3.393,8.76,10.472c0,8.571-4.594,9.595-7.027,9.595
		c-4.896,0-9.277-3.861-9.277-10.823C92.832,53.026,96.391,50.569,100.377,50.569z"/>
	<path fill="#FFFFFF" d="M115.438,50.101c0.426,0,0.943,0.029,1.188,0.088c1.004,0.205,1.246,0.672,1.308,1.667
		c0.063,0.936,0.063,1.755,0.063,6.202v4.271c0,4.241,1.154,6.407,2.707,7.751c2.219,1.932,5.141,2.019,6.752,2.019
		c1.979,0,4.168-0.321,6.328-2.105c2.555-2.106,2.889-5.559,2.889-8.806v-3.13c0-4.446,0-5.266,0.063-6.202
		c0.062-1.023,0.304-1.521,1.123-1.667c0.367-0.059,0.55-0.088,0.884-0.088c0.364,0,0.549-0.059,0.549-0.264
		s-0.213-0.263-0.642-0.263c-1.186,0-3.102,0.088-3.467,0.088c-0.029,0-1.947-0.088-3.498-0.088c-0.426,0-0.639,0.059-0.639,0.263
		c0,0.205,0.184,0.264,0.518,0.264s0.853,0.029,1.094,0.088c1.005,0.205,1.248,0.672,1.31,1.667
		c0.062,0.936,0.062,1.755,0.062,6.202v3.657c0,3.013-0.09,5.646-1.764,7.254c-1.218,1.17-2.859,1.58-4.197,1.58
		c-1.035,0-2.435-0.117-3.803-1.2c-1.49-1.17-2.371-2.955-2.371-7.196v-4.095c0-4.446,0-5.266,0.059-6.202
		c0.061-1.023,0.305-1.521,1.127-1.667c0.365-0.059,0.547-0.088,0.881-0.088c0.305,0,0.488-0.059,0.488-0.264
		s-0.215-0.263-0.67-0.263c-1.096,0-3.012,0.088-3.742,0.088c-0.914,0-2.83-0.088-4.439-0.088c-0.459,0-0.67,0.059-0.67,0.263
		C114.922,50.042,115.104,50.101,115.438,50.101z"/>
	<path fill="#FFFFFF" d="M140.609,50.101c0.492,0,1.088,0.029,1.369,0.088c1.16,0.205,1.439,0.672,1.51,1.667
		c0.07,0.936,0.07,1.755,0.07,6.202v5.148c0,2.691,0,5.003-0.176,6.231c-0.141,0.85-0.316,1.492-1.018,1.608
		c-0.314,0.06-0.736,0.118-1.264,0.118c-0.422,0-0.562,0.088-0.562,0.233c0,0.205,0.244,0.292,0.701,0.292
		c0.7,0,1.612-0.059,2.422-0.059c0.842-0.029,1.614-0.029,2-0.029c1.053,0,2.144,0.029,3.649,0.088
		c1.51,0.029,3.441,0.088,6.072,0.088c1.334,0,1.65,0,1.896-0.761c0.176-0.585,0.455-2.574,0.455-3.247c0-0.292,0-0.526-0.279-0.526
		c-0.248,0-0.316,0.117-0.387,0.439c-0.246,1.199-0.668,1.813-1.58,2.164c-0.912,0.353-2.387,0.353-3.299,0.353
		c-3.58,0-4.144-0.438-4.211-2.458c-0.035-0.849,0-3.541,0-4.536v-2.311c0-0.175,0.033-0.292,0.209-0.292
		c0.844,0,4.315,0.029,4.983,0.087c1.3,0.118,1.791,0.557,1.968,1.142c0.104,0.38,0.104,0.76,0.139,1.053
		c0,0.146,0.07,0.264,0.316,0.264c0.315,0,0.315-0.322,0.315-0.556c0-0.205,0.104-1.375,0.141-1.96
		c0.142-1.492,0.279-1.96,0.279-2.135c0-0.175-0.104-0.234-0.246-0.234c-0.174,0-0.313,0.146-0.562,0.38
		c-0.315,0.292-0.842,0.38-1.684,0.438c-0.809,0.059-4.844,0.059-5.617,0.059c-0.211,0-0.244-0.117-0.244-0.322v-7.401
		c0-0.205,0.068-0.292,0.244-0.292c0.701,0,4.387,0.058,4.984,0.117c1.756,0.176,2.105,0.526,2.352,1.054
		c0.176,0.35,0.211,0.848,0.211,1.053c0,0.263,0.07,0.41,0.314,0.41c0.246,0,0.316-0.176,0.352-0.322
		c0.07-0.351,0.142-1.638,0.176-1.93c0.105-1.346,0.281-1.697,0.281-1.901c0-0.147-0.035-0.264-0.209-0.264
		c-0.178,0-0.389,0.087-0.563,0.117c-0.279,0.059-0.843,0.117-1.509,0.176c-0.668,0.03-7.651,0.03-8.774,0.03
		c-0.489,0-1.299-0.03-2.213-0.059c-0.877,0-1.894-0.03-2.842-0.03c-0.525,0-0.771,0.059-0.771,0.263
		C140.014,50.042,140.225,50.101,140.609,50.101z"/>
	<path fill="#FFFFFF" d="M161.195,71.338c1.447,0.556,2.962,0.76,4.912,0.76c1.783,0,3.668-0.263,5.351-1.2
		c2.422-1.374,3.164-3.393,3.164-5.089c0-2.779-1.447-4.797-5.519-7.459l-0.942-0.614c-2.793-1.842-3.565-2.867-3.565-4.212
		c0-1.755,1.514-3.013,4.004-3.013c2.188,0,3.162,0.878,3.668,1.434c0.705,0.761,0.875,1.667,0.875,1.93
		c0,0.352,0.1,0.527,0.336,0.527c0.27,0,0.369-0.234,0.369-0.877c0-2.282,0.135-3.13,0.135-3.51c0-0.205-0.168-0.293-0.471-0.351
		c-0.875-0.206-2.289-0.498-4.476-0.498c-4.679,0-7.771,2.311-7.771,5.529c0,2.369,1.276,4.417,4.979,6.933l1.547,1.053
		c2.793,1.902,3.299,3.248,3.299,4.681c0,1.551-1.48,3.335-4.51,3.335c-2.086,0-4.07-0.789-4.811-2.954
		c-0.168-0.498-0.304-1.112-0.304-1.493c0-0.234-0.034-0.498-0.336-0.498c-0.271,0-0.371,0.322-0.403,0.761
		c-0.035,0.468-0.168,2.224-0.168,3.833C160.557,70.987,160.657,71.133,161.195,71.338z"/>
	<path fill="#FFFFFF" d="M83.746,102.832c-0.234,0-0.498-0.029-0.819-0.088c-0.439-0.089-1.639-0.293-3.276-1.988
		c-1.727-1.814-3.745-4.416-6.348-7.695c2.955-2.398,3.862-4.387,3.862-6.551c0-1.961-1.17-3.453-1.989-4.008
		c-1.58-1.082-3.54-1.258-5.383-1.258c-0.906,0-3.129,0.088-4.124,0.088c-0.614,0-2.457-0.088-4.008-0.088
		c-0.439,0-0.643,0.059-0.643,0.264s0.175,0.262,0.497,0.262c0.41,0,0.907,0.031,1.141,0.088c0.965,0.205,1.199,0.674,1.258,1.668
		c0.059,0.936,0.059,1.754,0.059,6.201v5.148c0,2.69,0,5.002-0.146,6.231c-0.117,0.849-0.264,1.49-0.849,1.606
		c-0.176,0.039-0.407,0.072-0.661,0.093c-0.22-0.017-0.452-0.046-0.685-0.093c-0.614-0.146-1.463-0.555-2.574-3.188
		c-1.872-4.447-6.553-16.148-7.255-17.758c-0.292-0.672-0.468-0.936-0.731-0.936c-0.292,0-0.468,0.319-0.819,1.17l-7.344,18.139
		c-0.548,1.369-1.079,2.318-2.246,2.58c-0.333-0.053-0.709-0.131-1.156-0.27c-1.07-0.322-1.426-1.355-1.748-3.603l-3.245-21.824
		c-0.107-0.748-0.32-1.104-0.642-1.104c-0.322,0-0.5,0.285-0.785,0.856l-9.699,20.076l-9.735-19.828
		c-0.463-0.926-0.677-1.104-0.962-1.104s-0.5,0.322-0.606,0.928L8.554,99.812c-0.178,1.213-0.463,2.604-1.462,2.816
		c-0.535,0.106-0.784,0.106-1.07,0.106c-0.356,0-0.57,0.07-0.57,0.25c0,0.32,0.286,0.394,0.642,0.394
		c1.141,0,2.853-0.107,3.53-0.107c0.642,0,2.246,0.107,3.744,0.107c0.535,0,0.856-0.072,0.856-0.394c0-0.18-0.25-0.25-0.535-0.25
		c-0.356,0-0.856-0.034-1.498-0.178c-0.606-0.144-1.07-0.466-1.07-1.142c0-0.572,0.036-1.035,0.107-1.678l1.854-13.906h0.143
		c1.248,2.674,3.388,6.883,3.708,7.631c0.428,0.998,3.245,6.455,4.101,8.095c0.571,1.069,0.927,1.782,1.248,1.782
		c0.321,0,0.5-0.319,1.319-1.996l7.773-15.903h0.144l2.139,15.513c0.143,0.998,0.036,1.463-0.178,1.532
		c-0.25,0.106-0.393,0.216-0.393,0.394c0,0.215,0.214,0.32,1.034,0.393c1.426,0.107,6.348,0.178,7.238,0.178
		c0.304,0,0.568-0.047,0.739-0.143c0.528-0.018,0.93-0.035,1.073-0.035c0.907,0,2.165,0.086,3.101,0.086
		c0.322,0,0.498-0.057,0.498-0.291c0-0.176-0.088-0.234-0.438-0.234h-0.439c-0.906,0-1.169-0.381-1.169-0.906
		c0-0.352,0.146-1.053,0.438-1.784l1.58-4.009c0.058-0.176,0.117-0.233,0.263-0.233h6.523c0.146,0,0.235,0.06,0.293,0.205
		l2.34,6.024c0.146,0.353-0.058,0.615-0.263,0.674c-0.292,0.029-0.41,0.089-0.41,0.265c0,0.205,0.351,0.205,0.878,0.233
		c2.34,0.058,4.475,0.058,5.529,0.058c0.048,0,0.086,0,0.131,0c0.006,0,0.01,0,0.016,0c1.17,0,3.013-0.086,3.569-0.086
		c0.438,0,2.604,0.086,4.3,0.086c0.38,0,0.585-0.086,0.585-0.291c0-0.146-0.117-0.233-0.351-0.233c-0.352,0-0.994-0.06-1.433-0.117
		c-0.877-0.117-1.054-0.76-1.141-1.607c-0.146-1.23-0.146-3.541-0.146-6.26v-0.41c0-0.176,0.087-0.236,0.233-0.236l2.545,0.062
		c0.205,0,0.38,0.028,0.527,0.204c0.38,0.439,1.726,2.429,2.896,4.035c1.638,2.254,2.75,3.627,4.007,4.302
		c0.761,0.409,1.492,0.555,3.13,0.555h2.779c0.352,0,0.556-0.058,0.556-0.291C84.097,102.919,83.98,102.832,83.746,102.832z
		 M52.971,94.437h-5.383c-0.117,0-0.146-0.088-0.117-0.205l2.691-7.168c0.029-0.117,0.088-0.264,0.176-0.264
		c0.087,0,0.116,0.146,0.146,0.264l2.632,7.197C53.147,94.349,53.117,94.437,52.971,94.437z M71.986,92.358
		c-0.526,0.382-0.907,0.498-2.077,0.498c-0.731,0-1.609-0.088-2.223-0.293c-0.205-0.088-0.263-0.205-0.263-0.524v-8.896
		c0-0.233,0.058-0.351,0.263-0.41c0.292-0.088,0.819-0.114,1.55-0.114c1.726,0,4.476,1.198,4.476,5.352
		C73.712,90.371,72.864,91.714,71.986,92.358z"/>
	<path fill="#FFFFFF" d="M158.579,102.832c-0.351,0-0.789-0.029-1.229-0.117c-0.613-0.146-1.461-0.555-2.574-3.188
		c-1.873-4.446-6.553-16.147-7.254-17.758c-0.293-0.672-0.469-0.937-0.731-0.937c-0.291,0-0.468,0.32-0.817,1.17l-7.343,18.138
		c-0.467,1.164-0.92,2.024-1.764,2.42c0.223-0.899,0.416-2.955,0.416-3.269c0-0.352-0.029-0.498-0.234-0.498
		c-0.233,0-0.293,0.176-0.321,0.439c-0.058,0.555-0.408,1.375-0.761,1.754c-0.729,0.791-1.873,0.82-3.422,0.82
		c-2.282,0-3.043-0.205-3.539-0.645c-0.614-0.527-0.614-2.545-0.614-6.289v-5.148c0-4.447,0-5.266,0.057-6.201
		c0.061-1.023,0.293-1.521,1.084-1.668c0.352-0.057,0.818-0.088,1.141-0.088c0.352,0,0.527-0.057,0.527-0.262
		s-0.207-0.264-0.615-0.264c-1.141,0-3.275,0.088-3.979,0.088c-0.791,0-2.633-0.088-4.008-0.088c-0.438,0-0.644,0.059-0.644,0.264
		s0.176,0.262,0.496,0.262c0.381,0,0.731,0.031,0.967,0.088c0.965,0.205,1.199,0.674,1.258,1.668c0.06,0.936,0.06,1.754,0.06,6.201
		v5.148c0,2.69,0,5.002-0.146,6.231c-0.117,0.849-0.264,1.49-0.85,1.606c-0.262,0.06-0.613,0.117-1.053,0.117
		c-0.238,0-0.363,0.045-0.422,0.117c0.036-0.084,0.067-0.18,0.1-0.293c0.234-0.848,0.439-3.041,0.439-3.363
		c0-0.352-0.029-0.498-0.234-0.498c-0.234,0-0.293,0.176-0.322,0.439c-0.057,0.555-0.41,1.375-0.76,1.754
		c-0.73,0.791-1.873,0.82-3.422,0.82c-2.283,0-3.043-0.205-3.541-0.645c-0.613-0.527-0.613-2.545-0.613-6.289v-5.148
		c0-4.447,0-5.266,0.059-6.201c0.059-1.023,0.291-1.521,1.082-1.668c0.35-0.057,0.82-0.088,1.141-0.088
		c0.353,0,0.527-0.057,0.527-0.262s-0.205-0.264-0.615-0.264c-1.141,0-3.274,0.088-3.979,0.088c-0.789,0-2.633-0.088-4.008-0.088
		c-0.438,0-0.643,0.059-0.643,0.264s0.176,0.262,0.496,0.262c0.381,0,0.731,0.031,0.967,0.088c0.965,0.205,1.199,0.674,1.258,1.668
		c0.059,0.936,0.059,1.754,0.059,6.201v5.148c0,2.69,0,5.002-0.146,6.231c-0.116,0.849-0.264,1.489-0.85,1.606
		c-0.262,0.06-0.613,0.117-1.053,0.117c-0.145,0-0.24,0.019-0.313,0.047c-0.076-0.028-0.17-0.047-0.304-0.047
		c-0.438,0-1.082-0.059-1.491-0.117c-0.877-0.117-1.082-0.643-1.17-1.432c-0.115-1.26-0.115-3.57-0.115-6.408v-5.147
		c0-4.447,0-5.267,0.057-6.201c0.059-1.022,0.293-1.521,1.082-1.668c0.354-0.058,0.586-0.088,0.879-0.088s0.467-0.058,0.467-0.293
		c0-0.175-0.234-0.231-0.613-0.231c-1.113,0-2.838,0.088-3.567,0.088c-0.851,0-2.691-0.088-3.804-0.088
		c-0.469,0-0.703,0.059-0.703,0.231c0,0.086,0.031,0.146,0.076,0.188c-0.055-0.021-0.117-0.033-0.192-0.039
		c-0.877-0.088-1.813-0.353-2.927-0.498c-1.346-0.177-2.428-0.293-4.24-0.293c-4.359,0-7.138,1.17-9.244,3.102
		c-2.808,2.574-3.423,6.025-3.423,8.016c0,2.836,0.761,6.113,3.627,8.629c2.662,2.312,6.026,3.188,10.034,3.188
		c1.871,0,4.094-0.205,5.264-0.673c0.498-0.204,0.615-0.352,0.762-0.848c0.291-0.996,0.646-3.541,0.646-3.891
		c0-0.234-0.062-0.441-0.265-0.441c-0.233,0-0.293,0.119-0.381,0.586c-0.117,0.527-0.496,1.375-0.994,1.933
		c-1.17,1.346-2.75,1.639-5.353,1.639c-3.921,0-9.215-3.452-9.215-10.413c0-2.839,0.555-5.617,2.691-7.578
		c1.287-1.17,2.955-1.813,5.499-1.813c2.693,0,4.973,0.789,5.938,1.813c0.732,0.762,1.111,1.784,1.141,2.69
		c0,0.41,0.059,0.646,0.293,0.646c0.264,0,0.322-0.234,0.352-0.672c0.06-0.586,0.029-2.195,0.089-3.16
		c0.057-1.023,0.146-1.375,0.146-1.609c0-0.092-0.033-0.172-0.107-0.236c0.07,0.02,0.154,0.031,0.256,0.031
		c0.35,0,0.73,0.031,1.053,0.119c0.643,0.145,0.938,0.643,0.994,1.637c0.059,0.936,0.059,1.754,0.059,6.201v5.148
		c0,2.838,0,5.147-0.146,6.377c-0.088,0.85-0.265,1.346-0.849,1.463c-0.264,0.059-0.614,0.117-1.055,0.117
		c-0.35,0-0.467,0.088-0.467,0.233c0,0.205,0.205,0.291,0.586,0.291c1.17,0,3.012-0.086,3.684-0.086
		c0.791,0,2.633,0.086,4.564,0.086c0.158,0,0.293-0.021,0.393-0.065c0.099,0.047,0.242,0.065,0.429,0.065
		c0.586,0,1.346-0.058,2.021-0.058c0.7-0.028,1.346-0.028,1.665-0.028c1.199,0,2.253,0.028,3.57,0.086
		c1.313,0.028,2.836,0.09,4.942,0.09c1.172,0,1.525-0.09,1.707-0.424c-0.002,0.015-0.01,0.026-0.01,0.043
		c0,0.205,0.203,0.291,0.584,0.291c0.586,0,1.346-0.058,2.021-0.058c0.7-0.028,1.346-0.028,1.666-0.028
		c1.198,0,2.252,0.028,3.569,0.086c1.314,0.028,2.836,0.09,4.943,0.09c0.611,0,0.994-0.024,1.252-0.098
		c1.24-0.021,2.375-0.078,2.639-0.078c0.908,0,2.166,0.086,3.103,0.086c0.321,0,0.496-0.058,0.496-0.291
		c0-0.176-0.087-0.233-0.438-0.233h-0.439c-0.905,0-1.17-0.381-1.17-0.906c0-0.353,0.146-1.053,0.439-1.785l1.58-4.008
		c0.059-0.176,0.115-0.234,0.262-0.234h6.523c0.146,0,0.234,0.059,0.293,0.205l2.342,6.025c0.145,0.352-0.061,0.615-0.264,0.674
		c-0.295,0.029-0.41,0.088-0.41,0.264c0,0.205,0.35,0.205,0.877,0.234c2.342,0.057,4.477,0.057,5.529,0.057
		c1.082,0,1.346-0.057,1.346-0.291C158.959,102.86,158.813,102.832,158.579,102.832z M148.691,94.437h-5.383
		c-0.117,0-0.146-0.088-0.117-0.205l2.691-7.168c0.029-0.117,0.088-0.264,0.176-0.264s0.117,0.146,0.146,0.264l2.633,7.197
		C148.868,94.349,148.838,94.437,148.691,94.437z"/>
	<path fill="#FFFFFF" d="M174.814,97.916c-0.231,0-0.293,0.119-0.381,0.586c-0.117,0.526-0.498,1.375-0.994,1.932
		c-1.17,1.346-2.748,1.639-5.354,1.639c-3.918,0-9.215-3.453-9.215-10.414c0-2.838,0.557-5.617,2.691-7.578
		c1.287-1.17,2.955-1.813,5.5-1.813c2.69,0,4.973,0.789,5.938,1.813c0.729,0.762,1.108,1.785,1.142,2.691
		c0,0.41,0.059,0.645,0.291,0.645c0.264,0,0.321-0.233,0.352-0.672c0.059-0.586,0.029-2.195,0.088-3.16
		c0.059-1.022,0.146-1.375,0.146-1.608c0-0.175-0.117-0.322-0.438-0.351c-0.879-0.088-1.813-0.352-2.927-0.498
		c-1.346-0.176-2.43-0.293-4.243-0.293c-4.356,0-7.136,1.17-9.242,3.103c-2.81,2.573-3.422,6.024-3.422,8.017
		c0,2.836,0.76,6.112,3.627,8.629c2.662,2.311,6.024,3.188,10.033,3.188c1.872,0,4.096-0.205,5.266-0.672
		c0.498-0.205,0.615-0.352,0.761-0.848c0.293-0.996,0.645-3.541,0.645-3.892C175.079,98.123,175.02,97.916,174.814,97.916z"/>
</g>
<g>
	<path fill="#FFFFFF" d="M13.255,29.375c-3.265,0-5.588,2.259-5.588,5.545c0,3.308,2.324,5.587,5.588,5.587s5.587-2.281,5.587-5.587
		C18.842,31.634,16.52,29.375,13.255,29.375z M13.255,39.043c-2.303,0-3.955-1.673-3.955-4.102c0-2.407,1.652-4.082,3.955-4.082
		c2.302,0,3.955,1.674,3.955,4.082C17.209,37.37,15.556,39.043,13.255,39.043z"/>
	<path fill="#FFFFFF" d="M34.08,25.127c-0.607,0-1.046,0.479-1.046,1.13c0,0.647,0.439,1.129,1.046,1.129s1.068-0.482,1.068-1.129
		C35.148,25.606,34.688,25.127,34.08,25.127z"/>
	<rect x="33.284" y="29.417" fill="#FFFFFF" width="1.634" height="11.028"/>
	<path fill="#FFFFFF" d="M26.84,28.475v1.213h-1.423v0.063h-2.868v-1.422c0-1.276,0.879-1.967,1.946-1.967
		c0.565,0,1.173,0.209,1.674,0.565l0.67-1.319c-0.67-0.501-1.529-0.753-2.366-0.774c-1.841,0-3.537,1.298-3.537,3.706v1.213h-1.422
		v1.34h1.422v9.354h1.611v-9.354h3.161v-0.063h1.13v9.418h1.611v-9.418h3.161v-1.34h-3.161v-1.423c0-1.297,0.859-1.967,1.946-1.945
		c0.628,0,1.319,0.209,1.925,0.544l0.042-1.528c-0.565-0.356-1.276-0.544-1.988-0.565C28.577,24.77,26.84,26.026,26.84,28.475z"/>
	<path fill="#FFFFFF" d="M42.246,39.022c-2.282,0-3.915-1.674-3.915-4.081c0-2.408,1.633-4.061,3.915-4.061
		c1.339,0,2.447,0.483,3.285,1.277l0.899-1.152c-1.004-1.046-2.469-1.652-4.248-1.632c-3.181,0-5.464,2.281-5.464,5.568
		c0,3.286,2.261,5.566,5.464,5.566c1.903,0,3.432-0.712,4.416-1.904L45.656,37.6C44.882,38.52,43.689,39.022,42.246,39.022z"/>
	<path fill="#FFFFFF" d="M52.356,29.375c-3.203,0-5.462,2.281-5.462,5.568c0,3.286,2.239,5.566,5.483,5.566
		c1.841,0,3.39-0.67,4.437-1.841l-0.9-0.963c-0.858,0.9-2.05,1.383-3.412,1.383c-2.134,0-3.704-1.361-3.997-3.516h9
		C57.67,31.823,55.912,29.354,52.356,29.375z M48.503,34.229c0.252-2.093,1.759-3.453,3.852-3.453c2.156,0,3.579,1.34,3.682,3.453
		H48.503z"/>
	<path fill="#FFFFFF" d="M72.449,31.802c-0.815-1.569-2.343-2.47-4.312-2.47c-3.118,0-5.295,2.282-5.295,5.588
		c0,3.286,2.178,5.608,5.316,5.608c1.967,0,3.475-0.899,4.291-2.449v2.364h1.632V24.916h-1.632V31.802L72.449,31.802z
		 M68.473,39.064c-2.345,0-3.997-1.716-3.997-4.103c0-2.406,1.652-4.144,3.997-4.144c2.323,0,3.975,1.737,3.975,4.144
		C72.449,37.348,70.795,39.064,68.473,39.064z"/>
	<path fill="#FFFFFF" d="M81.471,29.375c-3.203,0-5.462,2.281-5.462,5.568c0,3.286,2.24,5.566,5.483,5.566
		c1.841,0,3.39-0.67,4.437-1.841l-0.9-0.963c-0.857,0.9-2.05,1.383-3.412,1.383c-2.135,0-3.704-1.361-3.998-3.516h8.999
		C86.787,31.823,85.029,29.354,81.471,29.375z M77.62,34.229c0.252-2.093,1.758-3.453,3.852-3.453c2.155,0,3.58,1.34,3.683,3.453
		H77.62z"/>
	<path fill="#FFFFFF" d="M96.542,38.938c-0.941,0-1.467-0.502-1.467-1.842v-6.005h3.493v-1.34l-3.493,0.021v-2.909h-1.611v2.908
		h-1.591v1.319h1.591v6.299c0,2.176,1.194,3.139,2.806,3.139c0.877-0.022,1.714-0.315,2.489-0.838l-0.46-1.319
		C97.691,38.75,97.105,38.938,96.542,38.938z"/>
	<path fill="#FFFFFF" d="M104.496,29.375c-3.265,0-5.588,2.259-5.588,5.545c0,3.308,2.325,5.587,5.588,5.587
		s5.585-2.281,5.585-5.587C110.081,31.634,107.759,29.375,104.496,29.375z M104.496,39.043c-2.304,0-3.957-1.673-3.957-4.102
		c0-2.407,1.653-4.082,3.957-4.082c2.299,0,3.954,1.674,3.954,4.082C108.45,37.37,106.795,39.043,104.496,39.043z"/>
	<path fill="#FFFFFF" d="M119.838,34.836c0,2.344-1.34,3.997-3.622,4.04c-1.901,0-3.054-1.152-3.054-3.098v-6.362h-1.635v6.801
		c0,2.658,1.551,4.291,4.123,4.291c1.992-0.021,3.454-0.837,4.188-2.554v2.491h1.632V29.417h-1.632V34.836z"/>
	<path fill="#FFFFFF" d="M126.032,31.864v-2.448h-1.63v11.029h1.63v-5.859c0.189-2.176,1.637-3.621,3.959-3.579v-1.652
		C128.126,29.375,126.767,30.253,126.032,31.864z"/>
	<rect x="131.142" y="29.417" fill="#FFFFFF" width="1.613" height="11.028"/>
	<path fill="#FFFFFF" d="M131.938,25.127c-0.607,0-1.067,0.479-1.067,1.13c0,0.647,0.46,1.129,1.067,1.129
		c0.606,0,1.067-0.482,1.067-1.129C133.005,25.606,132.544,25.127,131.938,25.127z"/>
	<path fill="#FFFFFF" d="M136.335,32.221c0-1.026,0.939-1.466,2.175-1.466c1.026,0,2.135,0.357,2.994,0.899l0.627-1.297
		c-0.919-0.627-2.198-1.004-3.515-1.004c-2.011,0-3.831,0.878-3.831,2.992c-0.02,3.914,6.153,2.554,6.09,5.211
		c-0.021,1.088-1.067,1.569-2.365,1.569s-2.72-0.524-3.661-1.403l-0.626,1.235c1.047,1.004,2.657,1.549,4.226,1.549
		c2.115,0,4.038-0.963,4.038-3.138C142.484,33.414,136.335,34.669,136.335,32.221z"/>
	<path fill="#FFFFFF" d="M158.246,29.354c-2.113,0.021-3.662,0.94-4.354,2.887c-0.461-1.821-1.883-2.887-3.953-2.887
		c-1.988,0.021-3.476,0.836-4.209,2.553v-2.49h-1.609v11.028h1.609v-5.42c0-2.366,1.361-3.998,3.621-4.06
		c1.927,0,3.055,1.152,3.055,3.12v6.36h1.655v-5.42c0-2.366,1.318-3.998,3.598-4.06c1.905,0,3.057,1.152,3.057,3.12v6.36h1.634
		v-6.802C162.348,30.984,160.819,29.354,158.246,29.354z"/>
	<path fill="#FFFFFF" d="M169.425,39.085c-2.134,0-3.701-1.361-3.996-3.516h8.999c0.168-3.746-1.592-6.215-5.148-6.194
		c-3.203,0-5.463,2.281-5.463,5.568c0,3.286,2.241,5.566,5.484,5.566c1.843,0,3.391-0.67,4.438-1.841l-0.902-0.963
		C171.979,38.604,170.786,39.085,169.425,39.085z M169.279,30.776c2.155,0,3.578,1.34,3.683,3.453h-7.535
		C165.68,32.137,167.187,30.776,169.279,30.776z"/>
</g>
</svg>
