<?xml version="1.0" standalone="no"?>
<!DOCTYPE svg PUBLIC "-//W3C//DTD SVG 20010904//EN"
 "http://www.w3.org/TR/2001/REC-SVG-20010904/DTD/svg10.dtd">
<svg version="1.0" xmlns="http://www.w3.org/2000/svg"
 width="64.000000pt" height="64.000000pt" viewBox="0 0 64.000000 64.000000"
 preserveAspectRatio="xMidYMid meet">

<g transform="translate(0.000000,64.000000) scale(0.100000,-0.100000)"
fill="#000000" stroke="none">
<path d="M210 499 c-41 -23 -81 -46 -87 -51 -9 -7 -13 -44 -13 -120 l0 -109
92 50 93 50 3 110 c1 61 -1 111 -5 111 -4 0 -42 -19 -83 -41z m40 -94 c0 -17
-9 -29 -30 -40 -39 -20 -40 -20 -40 13 0 20 7 32 23 40 35 17 47 14 47 -13z"/>
<path d="M340 430 c0 -98 2 -110 19 -120 34 -18 41 -11 41 35 0 50 -1 49 35
33 22 -10 25 -17 25 -68 0 -55 1 -57 35 -73 l35 -17 0 109 c0 108 0 110 -27
129 -28 20 -148 82 -158 82 -3 0 -5 -49 -5 -110z"/>
<path d="M227 242 c-48 -26 -86 -51 -84 -56 2 -6 42 -30 90 -55 l86 -46 88 45
c48 25 88 50 90 55 2 8 -163 106 -178 105 -2 0 -43 -22 -92 -48z"/>
</g>
</svg>
